<svg xmlns="http://www.w3.org/2000/svg" width="175" height="200" style=""><rect id="backgroundrect" width="100%" height="100%" x="0" y="0" fill="none" stroke="none" style="" class=""/><style>.st0{fill:#FFFFFF;}</style><g class="currentLayer" style=""><title>Layer 1</title><path class="st0" d="M69.4000015258789,83.90000343322754 c-5.699999809265137,0 -10.199999809265137,5 -10.199999809265137,11.100000381469727 s4.599999904632568,11.100000381469727 10.199999809265137,11.100000381469727 c5.699999809265137,0 10.199999809265137,-5 10.199999809265137,-11.100000381469727 c0.10000000149011612,-6.099999904632568 -4.5,-11.100000381469727 -10.199999809265137,-11.100000381469727 zM105.89999389648438,83.90000343322754 c-5.699999809265137,0 -10.199999809265137,5 -10.199999809265137,11.100000381469727 s4.599999904632568,11.100000381469727 10.199999809265137,11.100000381469727 c5.699999809265137,0 10.199999809265137,-5 10.199999809265137,-11.100000381469727 s-4.5,-11.100000381469727 -10.199999809265137,-11.100000381469727 z" id="svg_1"/><path class="st0" d="M154.5,0.0000019073486328125 h-134 C9.200000762939453,0.0000019073486328125 0,9.200002670288086 0,20.600000381469727 v135.1999969482422 c0,11.399999618530273 9.199999809265137,20.600000381469727 20.5,20.600000381469727 h113.4000015258789 l-5.300000190734863,-18.5 l12.800000190734863,11.899999618530273 l12.100000381469727,11.199999809265137 l21.5,19 V20.600000381469727 c0,-11.399999618530273 -9.199999809265137,-20.600000381469727 -20.5,-20.600000381469727 zm-38.599998474121094,130.60000610351562 s-3.5999999046325684,-4.300000190734863 -6.599999904632568,-8.100000381469727 c13.100000381469727,-3.700000047683716 18.100000381469727,-11.899999618530273 18.100000381469727,-11.899999618530273 c-4.099999904632568,2.700000047683716 -8,4.599999904632568 -11.5,5.900000095367432 c-5,2.0999999046325684 -9.800000190734863,3.5 -14.5,4.300000190734863 c-9.600000381469727,1.7999999523162842 -18.399999618530273,1.2999999523162842 -25.899999618530273,-0.10000000149011612 c-5.699999809265137,-1.100000023841858 -10.600000381469727,-2.700000047683716 -14.699999809265137,-4.300000190734863 c-2.299999952316284,-0.8999999761581421 -4.800000190734863,-2 -7.300000190734863,-3.4000000953674316 c-0.30000001192092896,-0.20000000298023224 -0.6000000238418579,-0.30000001192092896 -0.8999999761581421,-0.5 c-0.20000000298023224,-0.10000000149011612 -0.30000001192092896,-0.20000000298023224 -0.4000000059604645,-0.30000001192092896 c-1.7999999523162842,-1 -2.799999952316284,-1.7000000476837158 -2.799999952316284,-1.7000000476837158 s4.800000190734863,8 17.5,11.800000190734863 c-3,3.799999952316284 -6.699999809265137,8.300000190734863 -6.699999809265137,8.300000190734863 c-22.100000381469727,-0.699999988079071 -30.5,-15.199999809265137 -30.5,-15.199999809265137 c0,-32.20000076293945 14.399999618530273,-58.29999923706055 14.399999618530273,-58.29999923706055 c14.399999618530273,-10.800000190734863 28.100000381469727,-10.5 28.100000381469727,-10.5 l1,1.2000000476837158 c-18,5.199999809265137 -26.299999237060547,13.100000381469727 -26.299999237060547,13.100000381469727 s2.200000047683716,-1.2000000476837158 5.900000095367432,-2.9000000953674316 c10.699999809265137,-4.699999809265137 19.200000762939453,-6 22.700000762939453,-6.300000190734863 c0.6000000238418579,-0.10000000149011612 1.100000023841858,-0.20000000298023224 1.7000000476837158,-0.20000000298023224 c6.099999904632568,-0.800000011920929 13,-1 20.200000762939453,-0.20000000298023224 c9.5,1.100000023841858 19.700000762939453,3.9000000953674316 30.100000381469727,9.600000381469727 c0,0 -7.900000095367432,-7.5 -24.899999618530273,-12.699999809265137 l1.399999976158142,-1.600000023841858 s13.699999809265137,-0.30000001192092896 28.100000381469727,10.5 c0,0 14.399999618530273,26.100000381469727 14.399999618530273,58.29999923706055 c0,0 -8.5,14.5 -30.600000381469727,15.199999809265137 z" id="svg_2"/></g></svg>